<svg xmlns="http://www.w3.org/2000/svg" version="1.0" width="1000.000000pt" height="1000.000000pt" viewBox="0 0 1000.000000 1000.000000" preserveAspectRatio="xMidYMid meet">

<g transform="translate(0.000000,1000.000000) scale(0.100000,-0.100000)" fill="#753500" stroke="none">
<path d="M2790 9161 c-30 -7 -105 -55 -116 -73 -5 -7 -9 -19 -10 -27 -2 -7 -12 -23 -23 -35 -17 -18 -22 -37 -23 -92 -3 -101 15 -175 72 -291 28 -56 50 -104 49 -105 -1 -2 12 -28 29 -58 20 -36 32 -74 36 -110 3 -39 19 -83 51 -148 35 -69 47 -105 48 -140 0 -30 13 -74 38 -131 24 -53 35 -89 29 -96 -5 -7 4 -42 24 -91 22 -54 31 -91 28 -112 -3 -21 5 -54 23 -96 20 -48 25 -68 17 -82 -8 -14 -4 -33 12 -75 14 -34 21 -67 18 -87 -2 -18 2 -49 11 -69 8 -21 13 -56 12 -78 -1 -21 6 -58 16 -82 11 -26 14 -45 8 -48 -11 -7 -8 -32 11 -92 10 -32 10 -46 1 -56 -8 -11 -7 -23 5 -52 11 -28 13 -44 6 -60 -7 -15 -6 -31 5 -55 8 -19 12 -50 9 -70 -3 -19 0 -52 6 -72 8 -28 8 -41 -1 -51 -8 -11 -7 -23 5 -52 14 -33 14 -40 1 -53 -13 -13 -13 -19 0 -50 12 -28 13 -40 4 -55 -9 -14 -9 -27 -1 -52 8 -23 8 -40 1 -53 -6 -11 -6 -33 -1 -57 5 -22 5 -44 1 -50 -4 -5 -7 -46 -6 -90 1 -44 -2 -85 -7 -92 -6 -8 -6 -25 2 -48 9 -27 9 -39 0 -49 -6 -8 -8 -26 -4 -40 3 -14 2 -38 -4 -53 -5 -16 -6 -37 -2 -48 4 -11 3 -26 -3 -33 -6 -7 -11 -46 -11 -86 -1 -47 -6 -79 -15 -90 -10 -12 -11 -20 -3 -28 8 -8 8 -17 0 -31 -5 -11 -8 -37 -5 -58 3 -25 0 -42 -8 -49 -8 -6 -11 -18 -8 -26 3 -8 2 -22 -3 -31 -8 -18 -14 -81 -15 -140 0 -18 -5 -33 -10 -33 -6 0 -9 -14 -7 -30 2 -18 -3 -34 -11 -39 -8 -6 -11 -16 -6 -31 4 -14 3 -25 -5 -30 -7 -4 -14 -23 -16 -41 -9 -82 -17 -125 -25 -135 -4 -5 -6 -19 -3 -31 3 -11 1 -24 -5 -27 -6 -4 -11 -20 -11 -37 0 -16 -4 -29 -10 -29 -5 0 -10 -13 -10 -29 0 -17 -5 -33 -11 -37 -6 -3 -9 -16 -7 -28 3 -12 -2 -28 -10 -35 -7 -7 -11 -22 -9 -32 3 -11 -1 -23 -10 -28 -11 -5 -14 -17 -11 -34 3 -15 0 -28 -6 -30 -5 -2 -11 -15 -11 -29 -1 -14 -9 -33 -18 -42 -9 -9 -13 -24 -10 -33 4 -9 -1 -21 -11 -29 -10 -7 -16 -19 -14 -26 3 -7 -6 -30 -19 -50 -12 -21 -23 -44 -23 -52 0 -7 -7 -19 -15 -26 -9 -7 -13 -21 -10 -31 4 -12 -1 -22 -13 -30 -12 -8 -17 -19 -14 -31 2 -10 -2 -26 -11 -36 -15 -16 -17 -21 -17 -41 0 -4 -12 -20 -26 -34 -15 -16 -24 -33 -20 -42 3 -8 -4 -23 -15 -34 -12 -11 -18 -25 -14 -31 4 -7 -6 -24 -25 -41 -19 -18 -30 -36 -26 -44 3 -8 -4 -24 -16 -34 -11 -11 -18 -26 -16 -33 3 -7 -9 -24 -28 -38 -23 -17 -32 -31 -28 -43 4 -11 -5 -26 -25 -43 -17 -14 -31 -34 -31 -43 0 -10 -13 -33 -30 -51 -16 -18 -30 -39 -30 -46 0 -7 -8 -19 -18 -26 -10 -7 -24 -27 -31 -44 -7 -17 -25 -41 -42 -53 -16 -12 -29 -29 -29 -39 0 -9 -16 -30 -35 -45 -19 -15 -35 -36 -35 -47 0 -10 -15 -28 -36 -41 -26 -15 -34 -27 -31 -40 4 -14 -6 -27 -33 -47 -22 -15 -45 -38 -52 -52 -15 -31 -37 -54 -67 -69 -12 -7 -20 -18 -18 -26 6 -14 -34 -55 -71 -74 -12 -7 -25 -25 -28 -40 -4 -17 -18 -35 -37 -46 -47 -28 -67 -48 -67 -66 0 -10 -25 -33 -55 -54 -31 -20 -54 -42 -53 -50 3 -14 -61 -70 -91 -80 -10 -3 -23 -20 -30 -38 -9 -21 -34 -45 -72 -70 -33 -22 -59 -46 -59 -55 0 -10 -29 -36 -66 -61 -39 -26 -70 -54 -75 -70 -6 -16 -34 -41 -74 -66 -60 -36 -69 -46 -66 -67 0 -4 -25 -25 -57 -45 -67 -45 -87 -62 -95 -85 -8 -23 -53 -52 -71 -45 -15 6 -17 121 -3 145 5 7 5 21 2 32 -3 11 -2 27 3 36 5 9 6 31 2 49 -6 25 -3 37 9 49 12 13 13 20 4 34 -7 13 -8 24 -1 36 6 10 8 36 5 57 -3 26 0 42 9 50 9 7 11 17 4 28 -5 10 -5 33 -1 52 4 19 6 45 4 59 -2 13 2 27 9 31 9 6 9 17 -1 50 -11 37 -11 43 3 51 12 7 13 13 5 32 -8 17 -8 29 0 43 7 13 7 32 1 52 -6 23 -5 35 5 45 11 10 11 22 3 56 -7 27 -7 44 -1 49 5 3 9 43 8 89 0 45 3 82 7 82 16 0 8 34 -23 102 -22 47 -37 68 -50 68 -10 0 -21 -5 -24 -10 -4 -6 -10 -8 -15 -5 -5 3 -14 -1 -22 -8 -7 -8 -23 -19 -36 -26 -12 -6 -22 -21 -22 -32 0 -11 -12 -31 -26 -44 -17 -16 -24 -30 -20 -41 3 -9 1 -23 -5 -30 -7 -9 -9 -31 -6 -58 4 -25 2 -47 -4 -53 -8 -8 -8 -22 1 -47 7 -24 8 -41 2 -49 -5 -7 -8 -48 -8 -92 1 -44 -2 -83 -7 -86 -4 -3 -3 -25 2 -49 7 -34 6 -46 -5 -57 -10 -11 -11 -19 -3 -34 6 -12 7 -34 3 -52 -4 -18 -6 -44 -5 -59 1 -14 -2 -29 -7 -32 -6 -4 -6 -21 0 -46 9 -35 8 -43 -7 -54 -11 -8 -14 -15 -8 -19 12 -8 9 -130 -4 -149 -4 -7 -8 -47 -8 -88 0 -41 -4 -81 -9 -89 -5 -8 -10 -48 -11 -90 -1 -42 -4 -78 -5 -81 -6 -9 -12 -65 -12 -112 -1 -27 -5 -48 -11 -48 -5 0 -7 -12 -4 -26 5 -27 -6 -70 -29 -115 -7 -14 -10 -29 -6 -33 4 -4 -1 -14 -12 -21 -12 -9 -17 -22 -13 -34 3 -11 -1 -26 -9 -32 -8 -7 -13 -17 -11 -23 3 -7 -1 -25 -7 -41 -10 -24 -10 -37 2 -65 20 -50 55 -100 70 -100 7 0 59 22 116 50 71 34 114 49 139 48 23 -1 60 11 104 33 37 18 70 34 73 34 3 0 15 6 27 13 12 7 46 14 75 17 31 2 83 17 123 36 40 18 89 32 115 34 25 1 71 14 104 29 41 19 68 25 91 22 23 -4 51 2 91 20 37 16 66 23 84 19 16 -4 47 2 80 15 29 11 71 20 94 19 22 -1 60 6 84 16 26 10 54 15 72 12 17 -4 45 0 66 9 20 8 53 14 73 13 20 -2 43 1 51 6 7 4 39 9 69 9 31 1 61 4 66 8 23 13 76 19 89 9 19 -16 138 48 132 71 -2 9 9 29 26 45 20 20 27 34 24 49 -4 15 0 24 10 28 11 4 14 13 10 29 -3 13 -2 37 3 53 7 24 3 43 -19 90 l-27 60 -59 -1 c-32 0 -76 -7 -97 -14 -29 -10 -41 -10 -52 -1 -11 9 -24 8 -59 -5 -28 -11 -58 -15 -76 -12 -18 4 -46 0 -72 -12 -27 -11 -53 -15 -68 -11 -15 4 -45 0 -75 -11 -27 -10 -63 -16 -80 -14 -17 2 -57 -7 -93 -21 -34 -14 -68 -21 -75 -17 -14 9 -47 5 -63 -8 -16 -13 -50 -21 -104 -25 -25 -2 -76 -16 -115 -33 -48 -21 -74 -27 -86 -20 -12 6 -44 -3 -112 -31 -126 -53 -130 -53 -98 13 21 44 37 60 84 87 31 19 57 39 57 46 0 17 45 60 103 97 15 10 32 29 37 42 5 13 32 39 59 57 28 18 56 45 62 61 6 15 34 41 61 59 27 18 51 42 54 55 3 12 28 38 55 58 27 19 51 45 54 58 4 13 19 31 35 41 31 18 73 70 64 79 -3 3 4 8 15 12 12 3 21 10 21 14 0 4 11 13 25 19 15 7 22 17 19 25 -5 14 70 87 89 87 5 0 7 10 3 23 -4 19 1 26 30 42 24 13 37 28 41 47 3 17 17 35 34 45 16 10 29 20 30 23 6 45 20 66 49 75 10 3 22 19 25 36 4 16 16 35 26 42 11 7 29 31 41 55 12 23 25 42 30 42 4 0 14 16 22 34 8 19 24 41 35 48 12 7 21 22 21 34 0 12 13 31 30 44 17 13 29 31 28 40 -2 9 12 30 30 48 18 18 30 37 27 43 -4 5 2 18 13 28 12 9 24 29 27 44 4 15 16 34 27 41 11 8 18 22 16 33 -2 11 8 28 24 41 16 14 28 34 28 48 0 13 9 28 20 34 12 7 17 16 13 27 -4 9 1 21 11 28 9 7 19 22 21 34 2 12 13 34 24 50 12 16 21 36 21 44 0 8 6 20 14 26 8 7 13 23 10 36 -2 14 2 25 11 29 8 3 15 15 15 26 0 12 12 37 26 56 15 19 23 34 20 34 -4 0 1 14 9 31 9 17 14 36 12 43 -3 7 3 20 13 29 12 10 16 23 13 36 -3 14 0 23 11 27 11 4 15 13 10 26 -3 10 0 26 8 35 7 9 13 24 13 33 0 9 6 24 14 33 7 9 10 24 7 34 -4 9 -1 20 5 24 7 4 13 18 13 32 1 14 7 32 15 40 7 9 10 25 7 35 -4 13 -1 22 9 26 11 4 14 13 10 29 -4 14 -1 28 8 35 8 7 12 22 9 37 -3 16 1 27 11 31 12 4 15 14 10 35 -4 20 -1 29 7 29 8 0 11 9 7 27 -3 16 0 31 8 38 12 9 32 115 38 195 1 14 5 28 10 31 8 6 16 42 20 99 1 14 5 28 10 31 8 6 15 67 17 142 1 15 6 27 12 27 6 0 8 13 4 34 -5 23 -3 35 6 38 8 3 12 18 10 41 -2 19 1 44 6 54 5 10 6 27 2 38 -4 11 -3 26 4 34 6 8 12 26 13 40 1 14 4 40 6 56 2 17 -1 35 -5 41 -5 7 -2 18 7 28 10 10 14 24 10 36 -4 12 -1 27 5 35 9 11 10 26 2 55 -8 32 -7 42 4 48 11 6 13 15 6 33 -7 17 -6 28 3 36 10 9 11 23 4 54 -6 23 -6 46 -1 53 5 6 8 46 7 88 -1 42 1 82 5 88 4 7 3 30 -2 53 -6 27 -5 42 2 47 8 5 8 20 1 51 -6 26 -6 48 -1 54 9 11 9 24 -5 76 -4 15 -2 30 3 33 11 7 7 49 -7 75 -5 8 -4 22 2 32 8 13 8 28 0 54 -7 21 -8 46 -4 58 5 13 2 39 -7 66 -11 33 -12 48 -4 62 9 14 8 27 -4 55 -12 29 -13 42 -4 58 8 17 7 30 -5 60 -10 24 -14 52 -11 70 4 17 0 47 -10 73 -12 30 -14 46 -6 55 7 10 5 29 -9 68 -14 39 -17 61 -10 76 6 14 2 36 -15 78 -17 43 -21 62 -13 74 8 13 5 31 -10 70 -12 29 -21 72 -21 96 0 23 -11 69 -24 102 -15 36 -21 63 -15 70 10 12 -4 68 -22 90 -6 8 -8 14 -4 14 3 0 -2 15 -14 33 -13 22 -17 37 -11 47 12 18 8 32 -35 135 -23 53 -32 89 -28 108 5 26 -10 66 -69 179 -10 21 -19 40 -18 43 0 3 0 6 -1 8 0 1 -1 23 -3 48 -2 31 -16 70 -41 115 -20 38 -38 71 -38 74 0 3 -16 38 -35 78 -18 41 -31 76 -28 79 6 7 -49 159 -69 190 -9 12 -19 22 -23 22 -4 -1 -18 -4 -32 -8z" fill="#753500"/>
</g>
</svg>