<svg xmlns="http://www.w3.org/2000/svg" version="1.0" width="950.000000pt" height="692.000000pt" viewBox="0 0 950.000000 692.000000" preserveAspectRatio="xMidYMid meet">

<g transform="translate(0.000000,692.000000) scale(0.100000,-0.100000)" fill="#753500" stroke="none">
<path d="M5450 6913 c-19 -1 -87 -8 -150 -14 -285 -27 -619 -99 -907 -194 -150 -50 -294 -111 -483 -203 -82 -40 -97 -64 -60 -97 20 -18 22 -17 128 18 314 106 807 226 1117 272 424 63 933 61 1335 -6 903 -150 1696 -608 2255 -1304 94 -116 259 -372 334 -515 157 -301 265 -636 302 -933 17 -140 7 -385 -21 -516 -150 -708 -804 -1396 -1800 -1895 -542 -271 -1108 -437 -1755 -513 -218 -26 -878 -26 -1085 0 -203 25 -374 54 -525 89 -71 16 -149 32 -171 35 l-41 5 -159 -162 c-243 -248 -485 -455 -732 -624 -88 -61 -110 -72 -103 -54 5 13 91 207 190 433 100 225 181 419 181 430 0 12 -9 31 -20 43 -20 21 -29 22 -208 22 -103 1 -209 3 -237 5 -27 2 -133 6 -235 10 -603 18 -1070 117 -1459 311 -520 258 -846 638 -959 1118 -24 102 -26 129 -27 336 0 192 3 242 22 340 67 348 196 651 418 985 400 601 1044 1126 1765 1438 155 67 373 146 505 183 55 15 106 33 114 40 17 15 7 59 -15 68 -20 8 -188 -36 -364 -94 -629 -208 -1203 -566 -1689 -1051 -729 -729 -1055 -1642 -845 -2368 193 -664 827 -1175 1684 -1356 307 -64 603 -93 1051 -102 l316 -6 -152 -336 c-307 -681 -296 -654 -284 -690 25 -72 69 -68 215 20 395 238 744 526 1026 848 l56 64 159 -31 c741 -146 1317 -158 1988 -42 1042 181 2027 673 2675 1337 162 165 236 255 346 419 402 603 454 1245 159 1979 -173 430 -423 804 -770 1150 -650 649 -1485 1024 -2458 1104 -116 10 -541 13 -627 4z" fill="#753500"/>
</g>
</svg>